<?xml version="1.0" encoding="iso-8859-1"?>
<!-- Generator: Adobe Illustrator 19.0.0, SVG Export Plug-In . SVG Version: 6.00 Build 0)  -->
<svg version="1.1" id="Capa_1" xmlns="http://www.w3.org/2000/svg" xmlns:xlink="http://www.w3.org/1999/xlink" x="0px" y="0px"
	 viewBox="0 0 512 512" style="enable-background:new 0 0 512 512;" xml:space="preserve">
<g>
	<path style="fill:#C34F2C;" d="M55.52,293.188V80.018l2.328-2.348c4.964-5.002,7.698-11.637,7.698-18.679
		c0-14.624-11.898-26.522-26.523-26.522S12.501,44.367,12.501,58.991c0,7.043,2.734,13.677,7.698,18.68l2.328,2.346V295.2"/>
	<rect x="22.528" y="435.96" style="fill:#C34F2C;" width="32.993" height="43.57"/>
	<path style="fill:#C34F2C;" d="M489.472,295.2V80.018l2.328-2.348c4.964-5.002,7.698-11.637,7.698-18.679
		c0-14.624-11.898-26.522-26.523-26.522s-26.523,11.898-26.523,26.522c0,7.043,2.734,13.677,7.698,18.68l2.328,2.346v213.169"/>
	<rect x="456.48" y="435.96" style="fill:#C34F2C;" width="32.993" height="43.57"/>
</g>
<path style="fill:#FFDE55;" d="M456.478,266.043V115.82c0-16.139-13.083-29.222-29.222-29.222H332.66
	c-7.532,0-14.707-2.978-20.209-8.122C297.675,64.661,277.825,56.202,256,56.202s-41.675,8.457-56.451,22.273
	c-5.501,5.144-12.677,8.122-20.209,8.122H84.744c-16.139,0-29.222,13.083-29.222,29.222v150.222"/>
<path style="fill:#CD6437;" d="M10,314.845V435.96h492V314.845c0-11.961-9.696-21.657-21.657-21.657H31.657
	C19.696,293.188,10,302.884,10,314.845z"/>
<path style="fill:#11B9C1;" d="M456.478,293.188v-29.329c0-16.139-13.083-29.222-29.222-29.222H84.744
	c-16.139,0-29.222,13.083-29.222,29.222v29.329H456.478z"/>
<rect x="50" y="333.19" style="fill:#FEC549;" width="412" height="62.771"/>
<g>
	<path style="fill:#21D8DE;" d="M256,234.636H101.92v-60.241c0-11.598,9.402-21,21-21H235c11.598,0,21,9.402,21,21V234.636z"/>
	<path style="fill:#21D8DE;" d="M410.08,234.636H256v-60.241c0-11.598,9.402-21,21-21h112.08c11.598,0,21,9.402,21,21
		L410.08,234.636L410.08,234.636z"/>
</g>
<path d="M408.27,374.57c-0.66,0-1.31-0.06-1.96-0.19c-0.64-0.13-1.26-0.32-1.87-0.57c-0.6-0.25-1.18-0.56-1.72-0.921
	c-0.55-0.37-1.06-0.78-1.53-1.25c-1.859-1.86-2.92-4.43-2.92-7.07c0-0.65,0.061-1.31,0.19-1.95c0.13-0.64,0.32-1.27,0.57-1.87
	s0.56-1.18,0.92-1.73c0.369-0.54,0.779-1.06,1.239-1.52c0.471-0.46,0.98-0.88,1.53-1.24c0.54-0.36,1.12-0.67,1.72-0.92
	s1.23-0.44,1.87-0.57c1.29-0.26,2.62-0.26,3.91,0c0.64,0.13,1.271,0.32,1.87,0.57c0.6,0.25,1.18,0.56,1.729,0.92
	c0.54,0.36,1.061,0.78,1.521,1.24s0.88,0.98,1.24,1.52c0.359,0.55,0.67,1.13,0.92,1.73s0.44,1.23,0.569,1.87
	c0.131,0.64,0.2,1.3,0.2,1.95c0,2.64-1.069,5.21-2.93,7.07c-0.46,0.47-0.98,0.88-1.521,1.25c-0.55,0.36-1.13,0.671-1.729,0.921
	c-0.6,0.25-1.23,0.44-1.87,0.57C409.58,374.51,408.92,374.57,408.27,374.57z"/>
<path d="M499.472,289.637V84.126c6.472-6.815,10.026-15.707,10.026-25.133c0-20.139-16.384-36.522-36.522-36.522
	c-20.139,0-36.522,16.384-36.522,36.522c0,7.588,2.304,14.829,6.578,20.92c-4.83-2.13-10.167-3.313-15.775-3.313H332.66
	c-4.885,0-9.637-1.927-13.379-5.426C302.06,55.07,279.587,46.203,256,46.203s-46.061,8.868-63.281,24.969
	c-3.743,3.499-8.495,5.427-13.379,5.427H84.744c-5.609,0-10.946,1.184-15.775,3.314c4.275-6.091,6.579-13.333,6.579-20.92
	c0-20.139-16.384-36.522-36.523-36.522S2.503,38.856,2.503,58.994c0,9.425,3.554,18.318,10.026,25.132v205.513
	C4.92,295.424,0,304.571,0,314.845V435.96c0,5.523,4.477,10,10,10h2.527v33.57c0,5.523,4.477,10,10,10H55.52c5.523,0,10-4.477,10-10
	v-33.57h380.959v33.57c0,5.523,4.478,10,10,10h32.992c5.522,0,10-4.477,10-10v-33.57H502c5.522,0,10-4.477,10-10V314.845
	C512,304.571,507.08,295.424,499.472,289.637z M20,425.96V314.845c0-6.428,5.229-11.657,11.657-11.657h448.686
	c6.428,0,11.657,5.23,11.657,11.657V425.96H20z M266,174.395c0-6.065,4.935-11,11-11h112.08c6.065,0,11,4.935,11,11v50.241H266
	V174.395z M246,224.637H111.919v-50.241c0-6.065,4.935-11,11-11H235c6.065,0,11,4.935,11,11V224.637z M427.256,244.637
	c10.6,0,19.223,8.623,19.223,19.222v19.329H65.522v-19.329c0-10.599,8.622-19.222,19.222-19.222L427.256,244.637L427.256,244.637z
	 M472.976,42.47c9.11,0,16.522,7.412,16.522,16.522c0,4.387-1.703,8.519-4.796,11.636l-2.329,2.348
	c-1.858,1.873-2.901,4.405-2.901,7.043v203.168H466.48V80.018c0-2.639-1.043-5.171-2.901-7.044l-2.329-2.347
	c-3.093-3.116-4.796-7.248-4.796-11.635C456.453,49.882,463.865,42.47,472.976,42.47z M84.744,96.598h94.596
	c9.975,0,19.577-3.842,27.039-10.818C219.881,73.156,237.503,66.204,256,66.204s36.119,6.953,49.621,19.578
	c7.461,6.976,17.064,10.818,27.039,10.818h94.596c10.6,0,19.223,8.623,19.223,19.222v113.858
	c-5.684-3.209-12.243-5.042-19.223-5.042h-7.176v-50.241c0-17.093-13.906-31-31-31H277c-8.094,0-15.473,3.118-21,8.217
	c-5.527-5.098-12.906-8.217-21-8.217H122.919c-17.093,0-31,13.907-31,31v50.241h-7.176c-6.979,0-13.538,1.833-19.222,5.042V115.82
	C65.522,105.221,74.144,96.598,84.744,96.598z M39.024,42.47c9.111,0,16.523,7.412,16.523,16.522c0,4.387-1.703,8.519-4.799,11.638
	l-2.328,2.348c-1.857,1.873-2.899,4.404-2.899,7.042v203.168H32.527V80.018c0-2.638-1.042-5.17-2.901-7.043l-2.329-2.347
	c-3.093-3.117-4.796-7.249-4.796-11.636C22.501,49.882,29.914,42.47,39.024,42.47z M45.52,469.53H32.527v-23.57H45.52V469.53z
	 M479.472,469.53H466.48v-23.57h12.992V469.53z"/>
<path d="M462,323.188H50c-5.523,0-10,4.477-10,10v62.772c0,5.523,4.477,10,10,10h412c5.522,0,10-4.477,10-10v-62.772
	C472,327.665,467.522,323.188,462,323.188z M452,385.96H60v-11.386h306.268c5.522,0,10-4.477,10-10s-4.478-10-10-10H60v-11.386h392
	V385.96z"/>
<g>
</g>
<g>
</g>
<g>
</g>
<g>
</g>
<g>
</g>
<g>
</g>
<g>
</g>
<g>
</g>
<g>
</g>
<g>
</g>
<g>
</g>
<g>
</g>
<g>
</g>
<g>
</g>
<g>
</g>
</svg>
