<?xml version="1.0" encoding="iso-8859-1"?>
<!-- Generator: Adobe Illustrator 19.0.0, SVG Export Plug-In . SVG Version: 6.00 Build 0)  -->
<svg version="1.1" id="Capa_1" xmlns="http://www.w3.org/2000/svg" xmlns:xlink="http://www.w3.org/1999/xlink" x="0px" y="0px"
	 viewBox="0 0 480 480" style="enable-background:new 0 0 480 480;" xml:space="preserve">
<path style="fill:#B2D7F4;" d="M48.001,48h288v336h-288V48z"/>
<g>
	<path style="fill:#726658;" d="M304.001,8h-224c-17.673,0-32,14.327-32,32v7.384h288V40C336.001,22.327,321.674,8,304.001,8z"/>
	<path style="fill:#726658;" d="M80.001,472h224c17.673,0,32-14.327,32-32v-64h-288v64C48.001,457.673,62.327,472,80.001,472z
		 M192.001,400c13.255,0,24,10.745,24,24s-10.745,24-24,24s-24-10.745-24-24l0,0C168.001,410.745,178.746,400,192.001,400z"/>
</g>
<g>
	<path style="fill:#FFC67B;" d="M414.057,207.76L432.001,136h-210.4l16.64,96h144.8C397.714,231.987,410.498,221.995,414.057,207.76
		z"/>
	<circle style="fill:#FFC67B;" cx="288.001" cy="288" r="24"/>
	<circle style="fill:#FFC67B;" cx="384.001" cy="288" r="24"/>
</g>
<circle style="fill:#E6E7E8;" cx="192.001" cy="424" r="24"/>
<g>
	<path style="fill:#231F20;" d="M336.001,313.72c-4.418,0-8,3.582-8,8V368h-272V55.384h272V104c0,4.418,3.582,8,8,8s8-3.582,8-8V40
		c-0.026-22.08-17.92-39.974-40-40h-224c-22.08,0.026-39.974,17.92-40,40v400c0.026,22.08,17.92,39.974,40,40h224
		c22.08-0.026,39.974-17.92,40-40V321.72C344.001,317.302,340.419,313.72,336.001,313.72z M80.001,16h224
		c12.993,0.03,23.603,10.395,23.936,23.384H56.065C56.398,26.395,67.007,16.03,80.001,16z M304.001,464h-224
		c-13.255,0-24-10.745-24-24v-56h272v56C328.001,453.255,317.255,464,304.001,464z"/>
	<path style="fill:#231F20;" d="M438.305,131.08c-1.515-1.943-3.841-3.079-6.304-3.08H228.313l-2.112-12.144
		c-2.013-11.484-11.989-19.86-23.648-19.856h-18.552c-4.418,0-8,3.582-8,8s3.582,8,8,8h18.552c3.89-0.004,7.219,2.792,7.888,6.624
		l27.368,157.496c1.706,9.86,9.363,17.62,19.2,19.456c4.115,17.11,21.322,27.644,38.432,23.529
		c11.488-2.763,20.504-11.656,23.424-23.105h34.272c4.418,17.112,21.872,27.402,38.984,22.984
		c17.112-4.418,27.402-21.872,22.984-38.984s-21.872-27.402-38.984-22.984c-11.272,2.91-20.074,11.712-22.984,22.984h-34.272
		c-4.317-17.033-21.624-27.342-38.657-23.025c-10.896,2.761-19.526,11.067-22.703,21.849c-2.06-1.137-3.504-3.135-3.936-5.448
		l-5.8-33.376h135.248c18.362,0.021,34.373-12.478,38.808-30.296l17.936-71.76C440.358,135.554,439.821,133.022,438.305,131.08z
		 M384.001,272c8.837,0,16,7.163,16,16s-7.163,16-16,16s-16-7.163-16-16S375.164,272,384.001,272z M288.001,272
		c8.837,0,16,7.163,16,16s-7.163,16-16,16s-16-7.163-16-16S279.164,272,288.001,272z M406.305,205.824
		c-2.673,10.684-12.274,18.178-23.288,18.176H244.993l-13.88-80h190.648L406.305,205.824z"/>
	<path style="fill:#231F20;" d="M192.001,392c-17.673,0-32,14.327-32,32s14.327,32,32,32s32-14.327,32-32S209.674,392,192.001,392z
		 M192.001,440c-8.837,0-16-7.163-16-16s7.163-16,16-16s16,7.163,16,16S200.837,440,192.001,440z"/>
</g>
<g>
</g>
<g>
</g>
<g>
</g>
<g>
</g>
<g>
</g>
<g>
</g>
<g>
</g>
<g>
</g>
<g>
</g>
<g>
</g>
<g>
</g>
<g>
</g>
<g>
</g>
<g>
</g>
<g>
</g>
</svg>
